<svg width="169" height="72" viewBox="0 0 169 72" fill="none" xmlns="http://www.w3.org/2000/svg">
<path fill-rule="evenodd" clip-rule="evenodd" d="M87.3969 0.25519C84.4303 1.34598 82.9453 4.62243 83.8815 8.01176C83.9717 8.33878 83.8167 8.45009 83.3762 8.37494C78.9259 7.61494 76.1801 10.8961 76.1039 17.0654C76.0645 20.2412 76.1512 20.106 74.0022 20.344C73.2424 20.4283 73.1988 20.5494 73.0009 23.1171C72.8868 24.5937 72.7632 26.0794 72.7257 26.4187C72.6008 27.5547 72.726 27.7418 73.7483 27.944L74.7654 28.1453L74.0241 28.6591C73.3142 29.1511 73.2913 29.2882 73.4896 31.8773C73.6034 33.3649 73.7651 34.9544 73.8487 35.41C73.9653 36.0433 73.8538 36.2763 73.3739 36.4005C72.8201 36.5439 72.7527 36.8143 72.7966 38.7167C72.8239 39.9012 72.9574 41.0193 73.0927 41.2007C73.2281 41.3825 73.1321 42.7953 72.8795 44.3404C72.6266 45.8856 72.4432 47.7889 72.4718 48.5696C72.5157 49.7692 72.2656 50.4185 70.8569 52.7582C69.9402 54.2814 69.1178 56.0501 69.0294 56.6887C68.9411 57.3277 68.5935 58.3656 68.257 58.9955C67.8213 59.8102 67.6554 60.717 67.6815 62.1398C67.7037 63.3661 67.4222 65.233 66.9529 66.969C66.4816 68.7113 66.2544 70.2218 66.3612 70.8995L66.5347 72H69.0768H71.6189L71.5223 71.0567C71.0813 66.7564 71.0892 66.5788 71.7908 64.9651C72.1763 64.0784 72.671 63.3529 72.8906 63.3529C73.1099 63.3529 73.4604 62.8929 73.6695 62.331C73.8782 61.7691 74.4134 60.5309 74.8585 59.5797C75.3034 58.6285 75.7797 56.9648 75.9167 55.8822C76.1598 53.9613 76.5573 53.2522 78.6228 51.059C78.883 50.7826 79.2977 49.7921 79.544 48.858C80.0324 47.0065 80.9202 44.9904 82.0562 43.1525L82.7836 41.9758L83.4865 42.9166C83.8732 43.4342 84.4474 43.8577 84.7623 43.8577C85.1249 43.8577 86.0563 44.8894 87.3 46.6682C89.171 49.3441 90.103 50.128 90.8622 49.6635C91.8482 49.0605 92.2959 52.0822 91.389 53.2211C90.9819 53.7324 91.3264 58.2892 91.9174 60.2086C92.579 62.3581 92.8742 65.5147 92.4862 66.2958C92.3023 66.6659 92.0169 67.6447 91.8523 68.4711C91.4951 70.2608 91.8469 70.5872 94.0576 70.5177C94.8244 70.4938 96.3093 70.6551 97.3579 70.8765C98.4065 71.0979 99.9687 71.1972 100.829 71.0976C103.398 70.7998 103.473 69.6794 100.997 68.5805C100.131 68.1959 98.9954 67.3205 98.3226 66.5187C97.1545 65.1273 97.1529 65.122 97.3195 62.7454C98.1501 50.8858 98.178 47.9008 97.4669 47.1134C97.1771 46.7927 96.4326 45.2793 95.8117 43.7505C94.4777 40.464 93.3827 38.5441 91.9413 36.9653C91.1983 36.1518 90.8577 35.4443 90.7862 34.5677C90.6886 33.3697 90.723 33.3203 91.7198 33.2253C93.1577 33.0882 93.5825 32.0993 93.8571 28.2522C94.0954 24.9125 93.8364 23.7337 92.8634 23.7337C92.477 23.7337 92.4135 23.5378 92.5828 22.8696C92.7033 22.3945 92.8348 21.9728 92.8752 21.9332C92.9155 21.8933 94.0808 22.4234 95.465 23.1117C98.6541 24.6971 99.9293 24.7481 101.675 23.3598C102.627 22.6027 103.056 21.948 103.427 20.6861C103.706 19.7372 104.178 18.8772 104.52 18.6958C105.014 18.4348 105.067 18.2313 104.815 17.576C104.209 15.9966 104.449 14.8392 105.643 13.593L106.772 12.4139H110.089C112.683 12.4139 113.405 12.3202 113.405 11.9834C113.405 11.636 114.263 11.5681 117.854 11.6306C121.458 11.6932 122.302 11.6259 122.302 11.275C122.302 10.8002 121.694 10.7414 117.774 10.8364C115.712 10.8864 115.312 10.815 115.312 10.3974C115.312 10.1229 115.097 9.89839 114.835 9.89839C114.491 9.89839 114.358 9.54905 114.358 8.64064C114.358 7.94887 114.215 7.38288 114.041 7.38288C113.866 7.38288 113.718 8.05515 113.713 8.87647C113.704 10.1858 113.651 10.3021 113.28 9.81978C112.9 9.3236 112.135 9.26951 105.484 9.26951C98.0834 9.26951 96.8813 9.11166 96.8813 8.13942C96.8813 7.87592 96.7383 7.74763 96.5635 7.85454C96.3887 7.96145 96.2457 8.32337 96.2457 8.65919C96.2457 9.02111 96.0284 9.26951 95.7122 9.26951C95.4189 9.26951 94.7074 9.43805 94.1313 9.64433C92.9187 10.0782 92.8231 10.0229 92.5635 8.7378C92.39 7.87969 92.4719 7.74511 93.3544 7.44074C94.2616 7.12787 94.3391 6.98826 94.3391 5.66479C94.3391 3.12601 93.7672 1.94152 92.0948 1.0177C90.232 -0.0114543 88.7681 -0.24917 87.3969 0.25519ZM101.456 13.8575C101.634 14.3175 100.975 15.5246 99.7967 16.8959C99.3531 17.4119 99.2829 17.3827 98.7055 16.4431C98.1142 15.4812 98.1123 15.4215 98.6576 15.0269C98.9709 14.8005 99.3261 14.615 99.4469 14.615C99.568 14.615 99.7418 14.332 99.8333 13.9861C100.033 13.2314 101.178 13.1406 101.456 13.8575ZM110.23 34.2966C108.877 34.8771 107.799 35.8421 107.1 37.0973C106.664 37.8793 106.556 39.2764 106.467 45.2711C106.408 49.2479 106.453 53.2381 106.567 54.138C106.805 56.0259 107.72 57.5305 109.249 58.5502C110.311 59.2586 110.42 59.2652 120.971 59.2652H131.621L132.969 58.4835C135.282 57.1425 135.649 55.9435 135.649 49.7327V44.4866H126.116C115.642 44.4866 115.952 44.4203 117.298 46.3764C118.816 48.5844 119.243 48.7202 125.038 48.8375L130.27 48.9432L130.179 51.6675L130.088 54.3914H121.031H111.975L111.89 46.6091L111.805 38.8267H123.727C131.767 38.8267 135.649 38.7201 135.649 38.4997C135.649 37.7614 134.333 35.6956 133.511 35.1431C131.57 33.8391 131.163 33.7954 121.096 33.808C113.102 33.818 111.139 33.9064 110.23 34.2966ZM144.387 34.39C142.849 35.0925 141.881 36.088 141.225 37.6419C140.825 38.5874 140.733 40.2807 140.733 46.6393C140.733 54.9276 140.83 55.5879 142.321 57.4635C143.729 59.2347 143.944 59.2652 154.969 59.2652H165.105L166.448 58.3024C168.849 56.5815 169 55.896 169 46.6877C169 37.9711 168.847 37.0819 167.065 35.4616C165.345 33.8967 164.596 33.7951 154.804 33.8026C146.592 33.8089 145.528 33.8687 144.387 34.39ZM3.58029 34.7117C1.97399 35.4336 0.763622 36.9495 0.283161 38.8409C0.0454727 39.7767 -0.0450903 42.8714 0.0210049 47.8024C0.134129 56.2598 0.19514 56.5108 2.61333 58.4458L3.83387 59.4225L13.6789 59.5181C23.2404 59.6108 23.5652 59.5938 24.9516 58.9297C26.5052 58.1855 27.7883 56.5674 28.1178 54.9367L28.3234 53.9198H17.6385H6.95369V46.8449V39.7701H17.5988C26.6348 39.7701 28.244 39.7018 28.244 39.3188C28.244 37.7743 26.3215 35.3091 24.5204 34.5444C23.7269 34.2073 21.4139 34.1117 14.193 34.1171C5.79258 34.1234 4.76111 34.1812 3.58029 34.7117ZM37.4318 34.4108C36.021 34.8337 34.9205 35.7213 34.1096 37.091C33.4099 38.2724 33.3282 38.7657 33.3282 41.8139C33.3282 44.8737 33.4083 45.3523 34.1198 46.5541C34.5551 47.2892 35.449 48.2215 36.1058 48.6256C37.2761 49.3456 37.489 49.3623 46.5949 49.4566L55.8895 49.5525V51.8935V54.2342H44.6089C32.0632 54.2342 32.7572 54.0956 33.9301 56.3693C34.6733 57.8103 35.395 58.4719 36.9043 59.0961C37.8707 59.4954 39.7652 59.5797 47.7865 59.5797C58.5581 59.5797 58.8387 59.536 60.5674 57.588C61.9681 56.0092 62.3294 54.5534 62.1981 51.0194C62.0933 48.202 62.0218 47.9241 61.1142 46.815C59.0062 44.2395 59.506 44.348 48.9556 44.1722L39.5246 44.015V41.8139V39.6128L50.567 39.5301C63.0857 39.4364 62.4333 39.6065 60.6919 36.8898C60.0825 35.9383 59.303 35.2324 58.3675 34.7843C57.0217 34.1397 56.5499 34.1114 47.6067 34.1372C42.4624 34.152 37.8837 34.2752 37.4318 34.4108ZM163.294 46.6877V54.8631H154.873H146.453V46.6877V38.5123H154.873H163.294V46.6877Z" fill="white"/>
</svg>
