<svg width="120" height="120" viewBox="0 0 120 120" fill="none" xmlns="http://www.w3.org/2000/svg">
<path d="M7.5 43.5C7.5 30.8988 7.5 24.5982 9.95235 19.7852C12.1095 15.5516 15.5516 12.1095 19.7852 9.95235C24.5982 7.5 30.8988 7.5 43.5 7.5H76.5C89.1012 7.5 95.4018 7.5 100.215 9.95235C104.448 12.1095 107.89 15.5516 110.048 19.7852C112.5 24.5982 112.5 30.8988 112.5 43.5V76.5C112.5 89.1012 112.5 95.4018 110.048 100.215C107.89 104.448 104.448 107.89 100.215 110.048C95.4018 112.5 89.1012 112.5 76.5 112.5H43.5C30.8988 112.5 24.5982 112.5 19.7852 110.048C15.5516 107.89 12.1095 104.448 9.95235 100.215C7.5 95.4018 7.5 89.1012 7.5 76.5V43.5Z" fill="white"/>
<path d="M88.6355 35.0249C83.2949 32.6775 77.5847 30.9714 71.615 30C70.8816 31.2453 70.0252 32.9203 69.4347 34.2528C63.0886 33.3562 56.8007 33.3562 50.5714 34.2528C49.981 32.9203 49.1049 31.2453 48.3653 30C42.389 30.9714 36.6723 32.6837 31.3319 35.0374C20.5603 50.33 17.6403 65.243 19.1003 79.944C26.2446 84.9565 33.1683 88.0012 39.9751 89.9937C41.6557 87.8207 43.1547 85.5107 44.446 83.076C41.9867 82.198 39.6312 81.1147 37.4055 79.8567C37.996 79.446 38.5735 79.0162 39.1316 78.5742C52.7065 84.5392 67.4555 84.5392 80.8683 78.5742C81.4326 79.0162 82.0102 79.446 82.5942 79.8567C80.362 81.1207 78.0001 82.2042 75.5407 83.0822C76.8321 85.5107 78.3245 87.827 80.0115 90C86.8248 88.0075 93.755 84.9627 100.899 79.944C102.613 62.9017 97.9729 48.1258 88.6355 35.0249ZM46.2953 70.903C42.2203 70.903 38.8785 67.3287 38.8785 62.9765C38.8785 58.624 42.1489 55.0437 46.2953 55.0437C50.4418 55.0437 53.7834 58.6177 53.712 62.9765C53.7187 67.3287 50.4418 70.903 46.2953 70.903ZM73.7045 70.903C69.6294 70.903 66.2875 67.3287 66.2875 62.9765C66.2875 58.624 69.5581 55.0437 73.7045 55.0437C77.8507 55.0437 81.1926 58.6177 81.1213 62.9765C81.1213 67.3287 77.8507 70.903 73.7045 70.903Z" fill="#333336"/>
</svg>
