<svg width="508" height="371" viewBox="0 0 508 371" fill="none" xmlns="http://www.w3.org/2000/svg">
<path fill-rule="evenodd" clip-rule="evenodd" d="M2.31234 2.16153C1.55166 6.56591 1.87901 34.0128 2.79088 42.2885C8.90882 97.8079 31.546 141.161 68.8834 168.864C72.0339 171.202 74.5449 173.181 74.4629 173.263C74.1558 173.571 54.0904 166.734 45.8345 163.508C35.1445 159.332 19.5244 151.675 12.9925 147.41C10.2724 145.634 6.1845 142.573 3.90859 140.607C0.19421 137.399 -0.199554 137.167 0.0660948 138.343C5.21564 161.145 14.4272 186.589 25.0315 207.301C41.2422 238.965 61.7994 262.44 84.8214 275.579L89.0605 277.998L85.2924 277.695C69.0586 276.39 54.6594 272.753 44.6834 267.439L40.8126 265.378L42.2544 269.408C45.3593 278.088 50.7514 288.236 58.0106 299.06C77.1708 327.63 104.344 350.714 137.103 366.25C141.248 368.215 146.925 370.73 149.719 371.837C154.167 373.601 154.665 373.906 153.723 374.289C153.131 374.53 149.785 374.733 146.288 374.739C136.129 374.759 125.725 372.294 113.36 366.939C110.663 365.771 108.347 364.924 108.212 365.056C107.643 365.618 109.766 370.64 111.91 373.803C114.638 377.827 122.418 385.343 127.709 389.064C143.938 400.479 166.829 410.904 195.509 419.941L202.574 422.167L199.277 422.573C193.538 423.281 173.734 422.674 166.541 421.571C163.044 421.034 160.077 420.597 159.947 420.6C159.818 420.603 162.552 422.079 166.025 423.88C179.427 430.832 193.181 439.543 207.519 450.16C253.842 484.46 286.565 526.352 301.497 570.471C305.471 582.213 309.034 597.432 309.983 606.721C310.378 610.589 310.407 610.652 311.613 610.341C312.456 610.123 312.555 609.706 312.557 606.318C312.564 596.48 316.142 582.11 322.061 568.147C326.293 558.163 335.366 541.403 336.106 542.202C336.803 542.954 338.583 558.512 338.815 565.876C339.013 572.211 338.921 573.749 338.218 575.868C337.169 579.023 334.182 584.947 332.018 588.163L330.359 590.628L330.879 597.28C331.852 609.708 331.765 609.277 333.296 609.277C334.535 609.277 334.656 609.44 334.94 611.485C335.531 615.744 337.486 624.878 338.496 628.099L339.516 631.353L342.042 626.07C345.024 619.837 348.977 613.805 351.632 611.439C352.677 610.507 353.532 609.646 353.532 609.526C353.532 609.405 353.004 609.034 352.357 608.699L351.183 608.092L355.853 603.501C360.507 598.927 360.529 598.912 361.962 599.498C362.753 599.821 364.236 600.981 365.259 602.076C366.706 603.624 367.185 604.567 367.416 606.323C369.173 619.672 373.225 631.294 377.318 634.724L378.731 635.908L379.05 634.095C379.224 633.098 379.704 629.633 380.114 626.395C381.58 614.848 383.734 608.837 389.435 600.384C392.009 596.57 394.93 593.476 395.958 593.476C396.218 593.476 397.271 593.898 398.297 594.415C400.054 595.299 400.162 595.476 400.162 597.452C400.162 599.423 400.355 599.74 403.354 602.699C408.571 607.847 411.392 614.311 411.497 621.361L411.543 624.381L414.064 619.31C418.127 611.136 420.392 603.073 420.407 596.728C420.413 594.272 420.83 591.808 421.82 588.393C422.592 585.726 423.176 583.518 423.115 583.485C423.055 583.453 421.628 582.469 419.944 581.3C412.629 576.221 406.279 569.231 402.938 562.579L400.965 558.649L403.251 555.962C408.352 549.97 412.073 546.072 412.693 546.072C413.054 546.072 419.443 548.476 426.891 551.415L440.433 556.758L454.093 551.25L467.752 545.742L468.86 546.72C469.469 547.258 471.984 550.154 474.449 553.155L478.93 558.611L477.212 562.18C474.935 566.911 471.595 571.275 466.961 575.577C464.081 578.25 458.633 582.494 456.809 583.485C456.749 583.518 457.332 585.726 458.105 588.393C459.029 591.584 459.509 594.297 459.509 596.328C459.509 602.767 462.282 612.52 466.349 620.391L468.411 624.381L468.443 621.593C468.526 614.362 471.332 607.85 476.57 602.733C479.588 599.783 479.763 599.498 479.763 597.483C479.763 595.47 479.865 595.302 481.628 594.415C482.654 593.898 483.706 593.476 483.966 593.476C484.995 593.476 487.916 596.57 490.489 600.384C496.143 608.766 498.269 614.642 499.791 626.102C500.209 629.245 500.709 632.758 500.902 633.909L501.255 636L503.227 634.004C504.312 632.906 505.599 631.233 506.087 630.286C508.544 625.523 511.593 614.331 512.491 606.783C512.764 604.479 513.102 603.75 514.67 602.071C515.69 600.979 517.172 599.821 517.963 599.498C519.396 598.912 519.418 598.927 524.071 603.501L528.742 608.092L527.567 608.699C526.921 609.034 526.393 609.405 526.393 609.526C526.393 609.646 527.248 610.507 528.293 611.439C530.925 613.784 534.871 619.788 537.874 626.014L540.401 631.254L541.399 628.282C542.461 625.12 543.854 618.793 544.792 612.879C545.344 609.391 545.403 609.277 546.664 609.277C548.153 609.277 548.076 609.663 549.045 597.28L549.566 590.628L547.914 588.174C544.193 582.644 540.994 575.123 540.994 571.906C540.994 569.246 542.108 563.398 543.88 556.761C545.57 550.427 548.477 541.349 548.987 540.812C549.384 540.393 553.611 547.322 557.927 555.468C567.237 573.038 573.493 593.754 573.493 607.003C573.493 609.709 573.612 610.129 574.437 610.342C575.528 610.623 575.359 611.246 576.743 601.841C582.802 560.697 605.171 518.902 640.141 483.385C663.284 459.879 692.542 438.047 719.629 424.068C723.318 422.164 726.23 420.604 726.1 420.601C725.971 420.598 723.004 421.034 719.506 421.571C712.367 422.666 692.595 423.281 686.771 422.588L683.474 422.196L694.543 418.571C735.693 405.097 763.758 389.233 774.326 373.476C776.115 370.808 778.296 365.511 777.804 365.026C777.669 364.892 776.312 365.334 774.791 366.008C760.6 372.297 745.937 375.676 736.463 374.842C730.209 374.291 730.182 374.205 735.591 372.055C778.813 354.881 813.694 325.335 834.911 287.926C839.688 279.504 845.394 266.732 844.69 266.038C844.559 265.907 842.886 266.63 840.972 267.643C831.284 272.771 816.582 276.437 800.755 277.671L796.987 277.965L800.594 275.903C822.171 263.57 840.548 243.739 856.553 215.518C867.944 195.433 878.973 167.147 884.823 143.014C885.577 139.903 886.099 137.264 885.984 137.15C885.868 137.036 884.343 138.298 882.594 139.954C880.845 141.611 878.211 143.836 876.742 144.899C867.233 151.78 850.893 159.688 831.974 166.565C823.444 169.666 811.757 173.436 811.49 173.172C811.404 173.087 812.182 172.464 813.218 171.788C817.676 168.877 827.373 160.74 832.993 155.195C863.112 125.477 880.585 83.3952 883.927 32.5289C884.497 23.866 884.254 4.53312 883.539 1.50903L883.182 0L879.649 4.04746C871.104 13.8387 858.929 25.3964 847.15 34.9014C812.722 62.6815 766.911 84.7746 727.278 92.7119C716.392 94.8921 709.812 95.6607 697.604 96.1794C686.278 96.6604 679.983 97.582 671.923 99.9392C655.218 104.824 639.579 113.402 625.125 125.609L620 129.937L618.137 126.429C615.684 121.811 611.143 115.092 606.969 109.909C599.815 101.025 586.119 87.1364 586.839 89.4964C587.294 90.9859 589.454 106.683 590.192 113.859C595.039 161.001 588.826 208.638 572.513 249.405C569.856 256.044 560.775 274.598 559.181 276.644C558.587 277.406 558.222 277.251 554.125 274.504C545.774 268.906 528.63 259.972 512.498 252.812C508.871 251.202 505.858 249.855 505.802 249.818C505.746 249.781 506.835 248.262 508.222 246.443C513.567 239.432 520.923 226.337 527.357 212.377C531.421 203.558 531.648 202.993 530.968 203.39C530.654 203.573 527.364 205.591 523.658 207.873C519.952 210.156 516.834 211.939 516.73 211.836C516.625 211.733 516.959 210.317 517.473 208.69C521.445 196.097 521.044 169.833 516.469 142.906C515.115 134.934 515.042 134.845 514.103 140.027C512.244 150.297 509.268 158.418 502.149 172.649C496.979 182.984 487.924 198.591 487.313 198.219C487.149 198.119 484.381 192.383 481.161 185.473C477.941 178.563 475.175 173.06 475.014 173.244C474.853 173.428 472.968 181.003 470.826 190.077C468.683 199.152 466.871 206.643 466.798 206.725C466.725 206.806 465.798 206.436 464.738 205.903C461.897 204.472 454.802 202.717 449.32 202.089C442.004 201.25 429.876 202.798 422.181 205.554C420.433 206.18 419.002 206.616 419.002 206.523C419.002 205.984 411.393 174.359 411.093 173.651C410.819 173.003 409.704 174.993 406.537 181.784C404.232 186.729 401.519 192.54 400.509 194.697L398.674 198.621L396.286 194.93C389.58 184.564 381.418 168.995 377.38 158.867C374.79 152.369 372.635 144.984 371.846 139.896C371.528 137.845 371.121 136.167 370.942 136.167C370.55 136.167 368.418 148.978 367.462 157.08C366.102 168.596 365.661 177.266 365.912 187.515C366.17 198.072 366.876 203.785 368.588 209.175C369.108 210.813 369.537 212.197 369.54 212.252C369.544 212.307 366.42 210.415 362.599 208.048C358.778 205.681 355.387 203.585 355.064 203.39C354.34 202.955 354.529 203.467 357.525 210.061C364.01 224.339 372.401 239.504 377.495 246.156L380.241 249.743L372.892 253.082C359.616 259.114 355.661 261.019 348.323 264.916C339.822 269.431 333.757 273.01 330.135 275.65C328.705 276.692 327.365 277.367 327.157 277.149C326.394 276.349 321.292 266.896 318.804 261.675C317.397 258.72 314.906 252.957 313.267 248.868C294.724 202.573 289.568 147.732 298.577 92.6064L299.202 88.7821L296.811 90.7972C293.506 93.5833 284.046 103.716 279.457 109.385C275.083 114.787 269.045 123.715 267.375 127.248C266.748 128.575 266.034 129.661 265.789 129.661C265.544 129.661 264.067 128.495 262.507 127.069C251.014 116.57 234.416 106.756 219.494 101.636C208.944 98.0161 201.758 96.7538 188.443 96.1822C168.656 95.3322 154.017 92.6362 133.806 86.1195C86.0728 70.7286 40.2027 41.5593 8.60596 6.50317C5.49589 3.05244 2.89498 0.157549 2.82621 0.0701769C2.75744 -0.0171951 2.52618 0.923911 2.31234 2.16153ZM30.3209 42.4647C34.6961 47.6177 45.7686 56.697 56.3253 63.7881C65.2114 69.7573 72.414 73.9344 84.1987 79.9533C102.979 89.5452 115.607 94.3158 138.276 100.382C149.506 103.387 155.976 105.438 164.415 108.665L170.061 110.825L168.183 111.145C167.151 111.321 160.98 111.719 154.471 112.03C136.853 112.871 121.067 111.806 109.155 108.974C104.189 107.793 98.0247 105.581 96.2146 104.33C95.6616 103.948 95.055 103.635 94.8661 103.635C93.7635 103.635 103.859 124.197 109.41 133.259C117.916 147.142 129.196 160.279 138.649 167.31C142.633 170.273 142.412 170.476 136.103 169.647C131.496 169.043 124.971 167.264 121.709 165.723C120.462 165.134 119.441 164.75 119.441 164.869C119.441 165.627 131.153 179.585 138.273 187.313C142.359 191.748 142.577 191.744 132.393 187.402C106.903 176.531 86.6498 163.132 69.9841 146.114C55.2363 131.054 44.1389 113.825 38.7308 97.5931C35.4667 87.7954 35.4116 88.1305 39.6832 91.8066C46.6725 97.8209 54.0089 101.613 60.921 102.782C64.5699 103.4 65.3677 103.196 64.121 101.965C61.748 99.6241 52.3566 84.578 43.9288 69.6141C35.7342 55.0653 25.7031 36.2654 27.7063 39.2114C28.0332 39.692 29.2098 41.1559 30.3209 42.4647ZM853.222 44.9608C838.864 71.8542 826.911 92.2969 821.158 99.7965C819.885 101.457 818.966 102.936 819.116 103.085C819.607 103.568 825.996 102.253 829.193 101.011C833.9 99.1807 839.106 95.9768 843.468 92.2235C845.622 90.3696 847.441 88.9047 847.509 88.9684C847.801 89.2421 845.041 97.7948 843.076 102.705C836.818 118.342 826.152 133.714 811.619 148.042C797.355 162.105 782.364 172.548 762.604 182.188C754.96 185.917 742.631 191.206 742.313 190.893C742.244 190.825 744.113 188.679 746.466 186.124C752.894 179.147 764.252 165.563 764.252 164.852C764.252 164.742 763.231 165.134 761.983 165.723C757.282 167.943 745.759 170.494 742.598 170.015C741.72 169.882 741.894 169.631 743.866 168.184C757.633 158.08 771.049 140.865 781.856 119.436C785.847 111.522 789.4 103.635 788.974 103.635C788.876 103.635 787.354 104.34 785.591 105.203C774.355 110.699 753.529 113.209 728.998 112.023C722.612 111.714 716.542 111.318 715.509 111.143C713.635 110.825 713.643 110.821 719.513 108.566C727.485 105.504 735.145 103.073 744.705 100.573C758.679 96.9188 771.02 92.8528 781.931 88.3075C788.368 85.6264 804.86 77.4056 811.905 73.3669C828.989 63.5729 845.599 51.1349 853.469 42.2425C854.786 40.7549 855.925 39.5289 856 39.5186C856.075 39.5084 854.825 41.9572 853.222 44.9608ZM288.826 117.875C285.647 134.052 285 141.355 285.003 161.031C285.005 180.25 285.501 186.527 288.303 202.858C292.165 225.354 299.879 251.476 307.434 267.639C308.437 269.783 309.257 271.665 309.256 271.821C309.254 272.427 305.727 266.286 303.021 260.964C296.492 248.124 285.379 221.714 276.779 198.604L272.949 188.309L273.439 179.776C274.398 163.104 276.93 148.784 281.724 132.914C284.328 124.294 289.314 111.222 289.81 111.712C289.915 111.814 289.472 114.588 288.826 117.875ZM596.494 117.461C604.905 138.667 609.885 162.335 610.307 183.106L610.435 189.38L605.915 201.231C593.773 233.067 583.649 256.33 576.786 268.162C574.185 272.648 573.239 273.733 575.071 270.13C579.802 260.831 586.406 241.643 590.747 224.589C596.303 202.758 598.928 182.359 598.928 161.005C598.928 145.733 597.935 134.602 595.356 120.963C593.67 112.045 593.59 111.535 593.883 111.535C594.027 111.535 595.201 114.202 596.494 117.461ZM241.559 133.292C252.906 139.925 261.034 145.371 264.502 148.662C266.892 150.931 267.319 151.605 267.769 153.827C268.4 156.946 269.209 168.338 269.204 174.044L269.201 178.226L268.333 176.367C265.512 170.324 249.906 151.972 228.047 128.992L221.885 122.515L227.302 125.319C230.281 126.862 236.696 130.45 241.559 133.292ZM652.711 132.1C632.32 153.709 618.742 169.741 615.635 175.878L614.471 178.177L614.475 173.554C614.481 167.664 615.267 156.624 615.9 153.562C616.596 150.197 619.363 147.646 629.727 140.817C632.549 138.958 636.046 136.763 637.499 135.94C638.952 135.117 643.321 132.602 647.206 130.351C654.077 126.372 660.004 123.241 660.774 123.182C660.983 123.167 657.355 127.18 652.711 132.1ZM183.888 158.198C192.708 160.929 204.843 162.055 217.009 161.272C221.36 160.992 226.039 160.897 227.407 161.06C238.533 162.39 247.539 168.271 254.407 178.691C257.339 183.14 260.238 188.683 259.634 188.683C259.554 188.683 258.819 187.663 258 186.416C255.909 183.231 250.85 178.706 247.537 177.055C242.659 174.626 240.363 174.276 229.303 174.276C218.711 174.276 213.696 173.891 204.458 172.366C197.947 171.292 188.168 168.943 186.352 168.016C183.441 166.531 176.775 159.648 173.855 155.113L173.038 153.843L176.501 155.413C178.407 156.276 181.731 157.53 183.888 158.198ZM709.833 155.105C706.836 159.708 700.21 166.532 697.27 168.047C695.548 168.933 685.658 171.292 679 172.404C670.439 173.834 664.549 174.276 654.085 174.276C643.3 174.276 641.014 174.636 636.034 177.117C632.714 178.77 627.813 183.188 625.658 186.47C624.858 187.686 624.12 188.599 624.017 188.497C623.703 188.187 626.69 182.624 629.284 178.691C636.16 168.267 645.161 162.39 656.286 161.06C657.653 160.897 662.332 160.992 666.684 161.272C682.631 162.298 698.649 159.862 708.202 154.958C710.872 153.588 710.824 153.584 709.833 155.105ZM511.077 162.047C509.542 169.511 507.18 178.442 504.342 187.521C501.935 195.217 497.438 208.112 497.016 208.529C496.883 208.66 494.977 206.914 492.778 204.65L488.782 200.534L489.638 199.14C490.108 198.373 492.361 194.713 494.644 191.007C499.722 182.761 507.113 168.423 509.907 161.395C511.047 158.528 512.036 156.238 512.105 156.306C512.175 156.375 511.712 158.958 511.077 162.047ZM39.272 177.75C55.7662 188.189 94.153 195.792 135.68 196.846C141.126 196.985 146.219 197.191 146.997 197.306C147.933 197.443 150.077 198.952 153.318 201.755C165.515 212.304 175.642 218.323 186.31 221.362L190.223 222.477L186.978 222.763C169.764 224.282 151.592 223.149 143.815 220.072C142.325 219.482 141.107 219.114 141.107 219.253C141.107 219.393 142.601 221.469 144.428 223.866C157.187 240.615 173.348 254.856 188.303 262.529C190.816 263.819 192.653 265.008 192.384 265.172C192.115 265.336 189.847 265.324 187.343 265.144C177.238 264.418 169.932 262.267 163.45 258.107L162.088 257.233L163.222 259.092C165.846 263.392 171.375 270.155 176.664 275.531C185.002 284.006 194.186 291.025 203.286 295.875C205.096 296.839 206.577 297.758 206.577 297.916C206.577 298.372 200.828 299.293 196.089 299.596C189.095 300.042 182.495 298.692 178.394 295.976L176.353 294.623L177.294 295.912C184.004 305.1 200.253 321.621 210.816 329.995C218.279 335.912 228.365 341.537 235.046 343.509C238.906 344.648 238.7 344.837 232.365 345.963C224.036 347.442 216.798 347.289 211.733 345.526C210.63 345.142 209.624 344.929 209.498 345.054C209.085 345.461 215.592 352.277 220.048 356.104C226.738 361.851 232.136 365.482 238.841 368.745C245.862 372.163 250.903 373.823 257.364 374.85C259.86 375.246 261.965 375.631 262.041 375.706C262.117 375.781 260.206 377.811 257.795 380.217C245.918 392.071 232.472 398.668 220.001 398.762L217.175 398.783L221.261 402.663C231.809 412.678 246.959 419.666 262.078 421.491C263.978 421.72 265.657 422.031 265.809 422.182C266.271 422.637 261.809 428.715 259.343 430.99C254.24 435.701 248.398 438.429 241.973 439.1L238.982 439.413L246.475 445.748C280.011 474.098 302.597 504.137 308.106 527.714C308.379 528.885 309.254 526.721 313.555 514.237L318.678 499.365L318.5 506.685C318.402 510.71 318.481 514.005 318.675 514.005C319.45 514.005 326.377 511.618 328.058 510.771L329.85 509.869L326.69 519.024C320.125 538.049 309.577 566.948 309.268 566.76C309.091 566.651 308.678 565.351 308.35 563.87C306.703 556.424 300.819 540.986 296.089 531.705C289.621 519.011 280.074 504.683 270.67 493.556C253.903 473.717 228.275 451.823 206.203 438.483L201.589 435.695L207.027 435.657C213.161 435.615 217.237 434.572 224.24 431.253C228.713 429.133 236.372 424.647 236.583 424.022C236.665 423.78 234.29 423.326 231.307 423.013C216.484 421.46 200.071 416.556 186.093 409.503L179.973 406.416L184.915 406.14C189.707 405.872 194.69 404.9 201.749 402.855C203.628 402.31 205.164 401.715 205.164 401.53C205.164 401.346 201.508 400.529 197.039 399.714C175.64 395.813 161.326 391.957 152.522 387.721C149.026 386.039 147.5 384.84 149.629 385.447C160.176 388.457 166.29 389.162 181.614 389.138C194.175 389.119 210.232 388.047 221.91 386.447C230.644 385.251 230.639 385.199 221.65 384.083C194.72 380.741 171.791 374.108 150.056 363.372C136.232 356.544 122.654 347.751 112.264 338.899C107.35 334.712 98.7161 325.996 98.7161 325.222C98.7161 324.963 99.2069 324.874 99.8145 325.024C102.52 325.695 110.459 326.291 113.054 326.02C116.531 325.656 120.705 324.56 122.185 323.621C123.248 322.947 123.095 322.841 117.004 320.028C96.0596 310.356 82.1192 300.589 75.2297 290.762C73.3782 288.121 72.009 285.057 72.4748 284.597C72.601 284.473 74.9005 285.129 77.5853 286.056C83.9919 288.269 93.4413 290.644 99.8937 291.663C108.591 293.037 123.022 292.768 129.539 291.11C133.411 290.125 139.384 287.639 138.905 287.211C138.691 287.021 136.927 286.399 134.984 285.831C126.21 283.262 113.064 277.369 103.562 271.744C88.4171 262.778 73.4102 249.758 61.6623 235.39C56.4398 229.003 46.3536 213.701 46.9687 213.098C47.0634 213.006 49.0482 214.086 51.3797 215.499C60.8536 221.241 71.8959 225.787 75.2359 225.32C76.2014 225.186 75.891 224.81 72.8106 222.385C58.8066 211.361 49.2357 201.32 41.131 189.148C37.9644 184.392 32.7749 174.562 32.7749 173.32C32.7749 172.97 33.4432 173.327 34.3056 174.138C35.1473 174.929 37.3823 176.555 39.272 177.75ZM849.4 176.959C843.041 191.471 828.733 208.432 811.725 221.619C807.636 224.789 807.279 225.182 808.367 225.318C811.889 225.76 822.851 221.247 832.293 215.47C834.613 214.049 836.598 212.973 836.704 213.077C837.02 213.389 833.601 219.152 829.551 225.13C817.66 242.683 800.626 259.037 782.521 270.283C772.936 276.236 757.961 283.122 748.709 285.831C746.766 286.399 745.002 287.021 744.788 287.211C744.308 287.639 750.282 290.125 754.154 291.11C760.671 292.768 775.102 293.037 783.799 291.663C790.227 290.648 799.696 288.271 806.034 286.082C808.679 285.168 810.981 284.421 811.149 284.421C811.771 284.421 810.756 287.058 809.093 289.76C805.587 295.457 797.934 302.335 787.886 308.817C783.153 311.871 762.332 322.53 761.1 322.53C759.646 322.53 760.684 323.466 763.144 324.374C767.333 325.921 772.412 326.418 777.949 325.824C780.573 325.542 783.227 325.186 783.848 325.032C784.565 324.854 784.977 324.954 784.977 325.306C784.977 325.61 781.85 328.932 778.029 332.688C756.635 353.719 725.364 370.322 691.362 378.704C679.515 381.624 661.62 384.62 654.745 384.835C653.802 384.864 653.802 384.865 654.742 385.241C657.545 386.361 682.094 388.692 696.898 389.243C709.785 389.722 723.525 388.498 731.449 386.164C733.225 385.641 734.769 385.304 734.881 385.414C735.375 385.901 726.933 389.693 721.26 391.531C714.347 393.771 701.558 397.031 695.734 398.039C686.201 399.687 678.855 401.104 678.399 401.383C677.829 401.731 683.358 403.458 689.597 404.881C691.929 405.413 696.039 405.976 698.731 406.132L703.625 406.416L697.553 409.506C683.804 416.503 667.236 421.458 652.386 423.013C649.402 423.326 647.028 423.78 647.11 424.022C647.32 424.647 654.979 429.133 659.453 431.253C666.448 434.568 670.534 435.615 676.645 435.657L682.063 435.695L678.529 437.814C655.8 451.441 630.024 473.395 612.81 493.788C594.779 515.148 581.312 540.465 574.901 565.057C574.611 566.169 574.286 566.993 574.179 566.888C573.359 566.078 553.583 509.61 554.321 510.184C555.068 510.765 562.021 513.353 563.88 513.741L565.334 514.045L565.177 506.705L565.02 499.365L570.128 514.237C574.741 527.667 575.271 528.951 575.592 527.482C578.104 515.998 586.921 499.509 597.984 485.606C608.974 471.794 624.799 455.85 639.634 443.646L644.779 439.413L641.638 439.103C632.913 438.242 624.833 433.147 619.408 425.085C618.428 423.628 617.746 422.317 617.893 422.172C618.04 422.026 619.715 421.72 621.615 421.491C637.045 419.629 653.608 411.74 663.911 401.345L666.486 398.748H663.364C651.315 398.748 637.604 391.971 625.835 380.198C620.802 375.163 620.675 375.61 627.424 374.591C641.084 372.528 655.527 364.358 668.755 351.212C674.054 345.945 675.265 344.363 673.465 345.055C668.342 347.025 658.791 347.467 651.563 346.069C644.944 344.789 644.783 344.649 648.627 343.514C663.53 339.116 683.276 323.476 701.82 301.384C704.18 298.572 706.419 295.853 706.795 295.342C707.451 294.452 707.44 294.444 706.546 295.173C705.014 296.42 701.078 298.192 698.311 298.88C695.042 299.693 685.13 299.695 680.53 298.882C678.652 298.55 677.115 298.137 677.115 297.963C677.115 297.79 678.44 296.934 680.059 296.062C684.645 293.592 690.63 289.706 695.014 286.353C703.196 280.094 713.326 269.574 718.469 261.993C721.829 257.041 721.801 257.099 720.43 257.97C715.516 261.091 710.486 263.05 704.599 264.135C700.165 264.953 691.994 265.59 691.307 265.171C691.038 265.007 692.864 263.813 695.365 262.518C707.578 256.195 719.911 246.243 731.079 233.699C735.532 228.698 742.586 219.842 742.586 219.253C742.586 219.114 741.367 219.482 739.877 220.072C733.477 222.604 720.985 223.809 706.554 223.286C698.814 223.005 691.57 222.365 694.247 222.2C696.242 222.076 705.41 218.701 709.144 216.716C716.473 212.819 721.869 208.896 733.958 198.676L735.606 197.283L746.279 196.957C778.982 195.959 809.066 191.573 828.452 184.977C837.395 181.935 846.813 177.002 849.709 173.845C851.18 172.242 851.095 173.089 849.4 176.959ZM476.394 187.521C477.437 194.046 478.134 201.017 478.627 209.829L478.938 215.406L476.171 212.817C474.649 211.393 472.397 209.648 471.167 208.939C469.936 208.23 468.929 207.593 468.929 207.523C468.929 207.454 470.177 202.194 471.702 195.833C473.227 189.472 474.625 183.573 474.809 182.724C474.992 181.876 475.207 181.248 475.286 181.33C475.365 181.412 475.864 184.198 476.394 187.521ZM209.634 187.062C216.302 188.724 223.11 189.262 232.78 188.891C242.303 188.526 244.487 188.817 249.232 191.08C256.041 194.328 262.471 201.806 265.913 210.482L266.91 212.993L265.357 211.826C260.011 207.806 250.461 205.23 236.251 203.978C224.028 202.9 215.257 199.528 206.843 192.671C204.567 190.815 199.041 184.37 199.041 183.57C199.041 183.347 200.469 183.803 202.215 184.585C203.961 185.365 207.299 186.48 209.634 187.062ZM683.197 185.746C681.098 188.789 676.414 193.284 672.86 195.665C665.76 200.423 657.618 203.08 647.344 203.992C633.096 205.257 623.765 207.759 618.353 211.767L616.819 212.903L617.792 210.436C621.273 201.618 627.835 194.088 634.847 190.865C639.295 188.82 641.619 188.535 650.913 188.891C663.91 189.39 673.885 187.992 681.355 184.625C683.038 183.866 684.49 183.304 684.579 183.375C684.669 183.447 684.047 184.514 683.197 185.746ZM225.418 209.848C227.848 210.511 230.578 210.707 238.647 210.799C244.239 210.862 249.662 211.14 250.699 211.415C253.674 212.205 258.132 215.334 260.482 218.281C262.506 220.819 265.899 227.02 266.652 229.557L266.989 230.695L265.452 229.418C261.827 226.409 255.328 224.468 244.979 223.304C235.391 222.226 230.548 220.447 224.397 215.743C221.89 213.827 218.231 209.703 217.01 207.418C216.484 206.433 216.56 206.442 219.411 207.706C221.031 208.424 223.734 209.388 225.418 209.848ZM666.427 207.766C663.718 212.293 658.983 216.548 653.565 219.322C648.876 221.723 646.115 222.449 638.312 223.333C628.08 224.492 621.205 226.583 618.065 229.491L616.714 230.743L617.065 229.581C619.219 222.448 624.866 215.135 630.25 212.507C633.325 211.006 634.564 210.858 643.311 210.949C647.904 210.996 652.991 210.806 654.615 210.527C657.9 209.961 663.997 208.062 665.811 207.04C667.398 206.146 667.396 206.145 666.427 207.766ZM521.211 214.013L515.808 219.358L515.198 217.619C514.863 216.663 514.754 215.82 514.956 215.747C515.158 215.673 517.761 214.067 520.74 212.177C523.72 210.287 526.26 208.724 526.385 208.704C526.51 208.684 524.182 211.073 521.211 214.013ZM381.043 234.4C384.604 239.479 387.603 243.871 387.707 244.16C387.81 244.449 387.609 247.194 387.26 250.262C386.911 253.329 386.668 255.891 386.721 255.954C386.773 256.018 390.313 256.866 394.587 257.839C399.514 258.961 403.125 260.052 404.454 260.821C405.607 261.488 408.818 264.142 411.59 266.72C414.361 269.298 416.749 271.408 416.897 271.408C417.044 271.408 417.573 270.519 418.073 269.433C419.071 267.264 419.274 263.806 418.518 261.846C418.252 261.155 418.143 260.482 418.277 260.35C418.613 260.018 419.972 263.291 420.6 265.949L421.122 268.158L423.307 265.484C426.456 261.63 428.662 257.705 430.325 252.993L431.782 248.868L431.523 251.424C430.813 258.415 427.368 266.113 422.697 271.142L419.74 274.327L423.022 277.27L426.303 280.213L419.214 280.225C414.837 280.233 411.935 280.05 411.627 279.746C411.276 279.399 410.236 279.528 408.118 280.18C402.693 281.849 401.504 281.822 405.377 280.117C411.64 277.361 411.484 277.767 408.019 273.223C406.382 271.074 404.339 267.805 403.479 265.958C402.62 264.111 401.575 262.503 401.157 262.384C400.74 262.265 396.743 261.699 392.277 261.125C387.81 260.551 383.933 259.946 383.661 259.78C383.317 259.57 383.337 257.302 383.728 252.314L384.29 245.15L378.991 234.693C376.077 228.942 373.89 224.445 374.131 224.701C374.371 224.956 377.482 229.321 381.043 234.4ZM230.599 242.587C236.889 244.672 240.262 245.054 255.327 245.39C264.837 245.602 270.585 245.919 271.812 246.299C279.019 248.531 285.661 254.215 289.267 261.237L290.375 263.395L287.923 262.096C282.834 259.4 275.802 257.944 262.217 256.773C251.952 255.889 246.178 254.55 240.019 251.627C235.057 249.271 229.498 245.322 227.492 242.726C226.402 241.315 226.336 241.091 227.096 241.381C227.597 241.572 229.174 242.115 230.599 242.587ZM656.137 242.809C654.19 245.328 648.576 249.299 643.674 251.627C637.515 254.55 631.741 255.889 621.476 256.773C607.889 257.944 600.859 259.4 595.767 262.097L593.313 263.398L594.294 261.477C597.985 254.248 604.573 248.562 611.881 246.299C613.108 245.919 618.855 245.602 628.366 245.39C643.789 245.046 646.771 244.69 653.439 242.389C657.614 240.949 657.579 240.943 656.137 242.809ZM475.65 267.574C474.736 270.577 473.53 274.603 472.971 276.52L471.956 280.005L464.672 280.134L457.39 280.262L458.567 279.14C461.58 276.268 477.048 262.113 477.173 262.113C477.25 262.113 476.565 264.57 475.65 267.574ZM255.091 265.923C257.917 266.676 260.745 266.924 269.221 267.161C279.717 267.455 279.846 267.47 282.645 268.825C285.813 270.357 289.643 273.918 291.24 276.814L292.3 278.735L289.456 277.601C285.846 276.163 281.345 275.315 273.967 274.683C266.482 274.041 262.765 273.175 258.425 271.061C255.184 269.483 248.412 263.938 250.617 264.669C251.135 264.84 253.148 265.405 255.091 265.923ZM388.088 268.844C393.888 280.926 402.065 288.134 412.408 290.285C415.736 290.977 420.857 290.956 425.361 290.232C426.138 290.107 425.714 290.328 424.419 290.723C421.099 291.737 412.21 292.122 408.548 291.411C402.192 290.177 395.956 286.345 392.255 281.4C389.701 277.988 386.664 272.136 386.329 269.98C385.75 266.258 385.563 264.437 385.761 264.437C385.877 264.437 386.924 266.42 388.088 268.844ZM631.399 266.908C628.426 269.674 623.273 272.325 618.71 273.434C617.026 273.843 613.003 274.404 609.77 274.68C602.365 275.313 597.854 276.16 594.26 277.592L591.438 278.717L592.409 276.84C593.853 274.047 598.059 270.144 601.157 268.724C603.765 267.528 604.295 267.467 614.471 267.172C623.062 266.923 625.775 266.678 628.799 265.882C630.85 265.341 632.634 264.795 632.763 264.668C632.892 264.541 633.227 264.444 633.508 264.453C633.789 264.463 632.839 265.567 631.399 266.908ZM497.431 269.444C497.26 270.567 496.132 273.403 494.924 275.746C492.092 281.237 486.725 286.793 482.118 289.001C476.913 291.496 469.575 292.45 463.277 291.452C461.475 291.166 461.934 291.071 466.339 290.816C469.188 290.651 472.508 290.206 473.715 289.827C482.672 287.014 489.658 280.593 494.718 270.522C497.522 264.941 498.153 264.69 497.431 269.444ZM302.442 277.238C309.404 283.993 318.087 287.726 330.023 289.095C332.695 289.402 336.465 289.535 338.399 289.39L341.916 289.128L339.854 290.474C337.222 292.194 333.253 296.02 330.707 299.292C326.678 304.471 321.457 314.035 318.403 321.832L317.311 324.621L317.291 317.882C317.269 310.211 317.764 306.496 319.43 301.848C320.071 300.059 320.703 298.282 320.836 297.898C320.998 297.428 320.262 296.719 318.581 295.724C311.203 291.356 303.303 282.732 298.219 273.499L296.94 271.175L298.243 272.802C298.959 273.697 300.849 275.693 302.442 277.238ZM585.476 273.615C580.234 282.551 572.939 290.635 566.155 295.02L562.35 297.481L563.498 299.847C565.442 303.858 566.417 309.815 566.409 317.65L566.401 324.621L564.085 319.129C559.471 308.189 554.015 299.616 548.152 294.097C546.158 292.22 543.872 290.373 543.072 289.992C541.705 289.342 542.002 289.299 548.018 289.271C563.527 289.2 576.488 283.793 584.119 274.21C585.346 272.669 586.444 271.408 586.561 271.408C586.677 271.408 586.189 272.401 585.476 273.615ZM629.58 284.353C627.588 288.026 621.476 293.134 616.069 295.644C611.319 297.848 608.019 298.613 599.374 299.515C589.367 300.559 582.792 302.307 579.091 304.907C578.344 305.433 577.733 305.691 577.734 305.482C577.735 305.273 578.466 303.671 579.358 301.922C582.674 295.427 587.131 291.135 592.749 289.025C595.145 288.125 596.442 288.021 606.464 287.93C618.423 287.82 621.793 287.299 627.366 284.696C628.693 284.076 629.839 283.551 629.913 283.53C629.987 283.509 629.837 283.879 629.58 284.353ZM267.212 287.669C269.345 287.95 274.962 288.132 279.694 288.072C287.666 287.972 288.497 288.041 291.012 289.016C294.411 290.334 298.286 293.239 300.724 296.297C302.36 298.349 305.96 304.718 305.96 305.56C305.96 305.726 305.349 305.433 304.601 304.907C300.859 302.278 294.289 300.549 284.058 299.499C280.172 299.101 275.721 298.46 274.167 298.076C270.204 297.097 263.338 293.695 260.3 291.206C257.966 289.295 254.167 285.066 254.154 284.367C254.152 284.209 256.216 284.772 258.742 285.619C261.267 286.464 265.079 287.387 267.212 287.669ZM366.302 291.484C361.429 308.841 358.232 332.612 359.013 345.686L359.326 350.949L362.67 347.723C365.729 344.772 372.118 339.726 372.796 339.725C372.952 339.724 373.009 341.868 372.924 344.488C372.782 348.835 374.177 360.313 375.008 361.64C375.154 361.873 376.089 360.818 377.086 359.295C378.083 357.773 379.828 355.665 380.963 354.61C383.001 352.719 388.405 348.883 388.667 349.141C388.741 349.215 388.57 350.754 388.286 352.562C387.405 358.18 389.336 368.178 393.196 377.989C394.582 381.513 394.711 381.685 394.993 380.39C395.534 377.91 397.266 375.164 399.326 373.518C401.139 372.069 407.514 368.539 408.318 368.539C408.495 368.539 408.641 369.324 408.641 370.282C408.642 372.822 409.821 379.028 411.439 385.01C412.884 390.353 416.768 401.815 417.808 403.804C418.351 404.842 418.403 404.766 418.669 402.549C418.825 401.251 419.508 399.029 420.188 397.612C421.413 395.057 425.307 389.918 426.019 389.918C426.222 389.918 426.661 391.12 426.993 392.59C429.307 402.819 435.407 414.425 440.135 417.595C441.715 418.655 441.815 418.665 443.141 417.898C447.852 415.173 455.087 401.406 456.929 391.66C457.111 390.702 457.444 389.918 457.671 389.918C458.364 389.918 462.289 395.118 463.524 397.672C464.165 398.998 464.856 401.194 465.059 402.552L465.429 405.022L467.622 399.176C471.57 388.651 474.242 378.58 474.878 371.833C475.048 370.021 475.303 368.539 475.443 368.539C476.102 368.539 482.552 372.075 484.143 373.309C486.186 374.892 488.694 378.898 488.722 380.623C488.739 381.678 488.787 381.706 489.248 380.923C490.169 379.359 492.496 372.673 493.669 368.219C495.383 361.708 495.972 356.082 495.323 352.406C495.029 350.74 494.874 349.291 494.979 349.188C495.306 348.865 500.139 352.282 502.547 354.538C503.81 355.721 505.661 357.918 506.66 359.42C507.768 361.086 508.566 361.902 508.704 361.511C509.694 358.716 510.557 351.642 510.584 346.112C510.605 341.514 510.765 339.775 511.153 339.92C512.418 340.396 517.933 344.763 521.026 347.737L524.374 350.956L524.468 347.113C524.519 344.999 524.662 343.11 524.783 342.916C525.196 342.258 524.009 326.055 523.059 319.37C521.957 311.614 520.008 301.887 517.931 293.777C517.122 290.616 516.522 287.861 516.598 287.655C516.816 287.064 528.671 291.091 533.534 293.408C540.503 296.728 540.548 296.812 535.56 297.18C531.135 297.505 526.393 298.269 526.393 298.656C526.393 298.78 527.662 300.528 529.213 302.538C539.993 316.512 546.413 330.151 546.079 338.37L545.939 341.817L544.307 339.493C542.059 336.292 539.181 333.279 537.603 332.474C536.878 332.104 536.284 331.964 536.284 332.165C536.284 332.365 536.804 336.187 537.439 340.658C539.07 352.131 540.14 361.755 539.966 363.377C539.818 364.745 539.785 364.724 537.102 361.551C535.609 359.786 533.936 358.103 533.383 357.811C532.418 357.301 532.39 357.352 532.677 359.123C534.104 367.932 534.231 380.653 532.97 388.64C532.377 392.396 531.895 393.103 531.36 391C530.901 389.194 526.479 379.505 524.531 376.039C522.859 373.06 519.588 369.004 518.861 369.004C518.648 369.004 518.584 369.421 518.719 369.932C519.043 371.152 518.094 377.581 516.901 382.249C515.679 387.029 513.218 394.684 512.742 395.184C512.54 395.396 512.011 393.933 511.567 391.93C510.403 386.686 508.375 382.482 507.008 382.482C506.789 382.482 506.61 387.344 506.609 393.287C506.608 399.23 506.375 405.975 506.09 408.275C505.107 416.226 502.864 423.101 499.904 427.24C499.391 427.958 498.878 428.453 498.765 428.341C498.651 428.228 498.056 425.968 497.443 423.318C495.096 413.172 490.853 403.834 486.465 399.158C485.054 397.654 483.762 396.424 483.594 396.424C483.425 396.424 483.431 398.463 483.607 400.955C483.945 405.73 483.406 416.423 482.571 421.52C481.725 426.682 479.819 433.533 477.864 438.432C475.443 444.502 475.309 444.704 474.579 443.359C473.059 440.556 469.458 437.494 466.692 436.652C465.646 436.334 465.632 436.384 465.63 440.66C465.629 445.311 464.717 451.782 463.482 455.911C462.489 459.229 459.981 465.207 459.583 465.203C459.413 465.201 458.815 463.58 458.255 461.601C457.695 459.622 456.77 456.777 456.2 455.279C455.124 452.451 452.784 449.379 452.169 449.986C451.974 450.178 451.647 452.646 451.439 455.471C450.592 467.05 447.717 477.043 443.493 483.102C442.075 485.135 441.944 485.212 441.133 484.487C439.899 483.385 437.027 477.819 435.687 473.932C434.188 469.584 432.777 462.112 432.203 455.498C431.951 452.587 431.633 450.093 431.495 449.958C431.357 449.822 430.723 450.195 430.085 450.786C428.674 452.094 426.361 457.444 425.274 461.912C424.833 463.724 424.321 465.206 424.136 465.206C423.551 465.206 420.835 458.243 419.618 453.622C418.767 450.389 418.376 447.422 418.187 442.772C417.9 435.68 418.056 435.914 414.739 437.577C413.376 438.26 409.985 441.752 409.1 443.384C408.52 444.454 408.497 444.441 407.44 442.387C402.47 432.738 399.209 414.859 399.995 401.576L400.309 396.271L399.176 397.117C394.159 400.862 388.948 411.523 386.02 424.027C385.036 428.226 384.912 428.477 384.155 427.801C382.911 426.691 380.034 420.299 379.027 416.408C377.555 410.722 377.085 405.196 377.084 393.519C377.083 387.047 376.902 382.482 376.646 382.482C375.264 382.482 372.897 387.524 371.877 392.638C371.558 394.239 371.142 395.38 370.951 395.173C369.586 393.689 365.532 378.248 365.036 372.641L364.697 368.808L362.667 371.021C360.277 373.626 357.646 378.213 355.028 384.341C353.99 386.769 352.772 389.592 352.322 390.615L351.503 392.474L350.867 389.453C349.484 382.89 349.58 365.843 351.04 358.64C351.299 357.367 351.251 357.313 350.31 357.81C349.757 358.103 348.083 359.786 346.59 361.553C344.317 364.243 343.85 364.603 343.714 363.775C343.442 362.117 345.626 343.372 347.211 333.753L347.545 331.732L346.182 332.438C344.537 333.29 341.527 336.366 339.394 339.377C338.533 340.591 337.731 341.584 337.611 341.584C337.49 341.584 337.502 339.545 337.636 337.053C337.824 333.571 338.229 331.554 339.387 328.339C342.064 320.907 347.484 311.646 354.544 302.445C357.13 299.074 357.24 298.829 356.366 298.367C355.549 297.936 348.319 297.04 345.054 296.966C343.896 296.939 343.892 296.927 344.818 296.201C347.808 293.858 366.719 286.633 367.105 287.685C367.187 287.909 366.825 289.618 366.302 291.484ZM458.651 302.711L469.25 312.405L470.099 322.928C470.566 328.716 470.971 333.998 470.999 334.666C471.042 335.722 469.146 337.387 456.572 347.331C448.61 353.628 441.982 358.78 441.843 358.78C441.654 358.78 414.684 337.689 412.779 336.051C412.519 335.828 413.851 317.126 414.413 313.112C414.476 312.662 420.671 306.674 428.178 299.807L441.829 287.321L444.941 290.17C446.653 291.737 452.823 297.38 458.651 302.711ZM460.795 290.743C460.638 290.897 460.232 290.914 459.892 290.78C459.516 290.631 459.628 290.521 460.177 290.499C460.673 290.479 460.951 290.589 460.795 290.743ZM441.611 300.061V306.483L439.893 303.934C438.948 302.531 438.107 301.304 438.025 301.206C437.901 301.059 420.501 314.538 418.661 316.207C418.157 316.664 415.858 333.611 416.264 333.875C416.345 333.928 422.02 338.334 428.874 343.665C435.728 348.996 441.561 353.358 441.837 353.358C442.113 353.358 447.633 349.22 454.103 344.163C460.574 339.107 466.252 334.704 466.721 334.379C467.544 333.809 467.539 333.476 466.583 325.16L465.591 316.532L454.041 305.24C447.689 299.029 442.293 293.878 442.051 293.793C441.792 293.701 441.611 296.277 441.611 300.061ZM439.901 307.89C440.846 309.296 441.722 310.446 441.846 310.446C441.971 310.446 442.846 309.296 443.792 307.89C444.738 306.484 445.65 305.334 445.817 305.334C446.089 305.334 455.549 312.925 457.038 314.338C457.506 314.782 457.203 315.309 455.565 316.895L453.502 318.893L451.997 316.296L450.491 313.699H441.85H433.209L431.623 316.258L430.037 318.816L428.02 316.789L426.003 314.761L431.731 310.048C434.882 307.455 437.622 305.334 437.82 305.334C438.018 305.334 438.954 306.484 439.901 307.89ZM301.358 315.683C303.246 316.604 305.622 318.067 306.639 318.933L308.487 320.51L305.626 320.306C302.061 320.051 296.887 321.061 290.417 323.274C286.093 324.753 284.756 324.994 279.774 325.195C273.577 325.446 270.611 324.901 266.411 322.742L264.276 321.643L266.631 321.619C271.197 321.57 281.344 318.417 285.428 315.776C287.678 314.321 290.539 313.702 294.289 313.858C297.332 313.984 298.484 314.282 301.358 315.683ZM598.966 316.13C601.406 317.307 604.25 318.615 605.287 319.036C608.206 320.222 614.454 321.591 617.062 321.616L619.417 321.639L617.768 322.538C614.287 324.436 610.343 325.318 605.34 325.318C600.29 325.318 599.257 325.113 590.214 322.305C585.424 320.817 583.867 320.541 580.007 320.494C575.687 320.441 575.49 320.396 576.2 319.618C577.481 318.216 581.921 315.509 584.476 314.572C586.333 313.892 587.828 313.715 590.723 313.834C594.126 313.973 594.999 314.216 598.966 316.13ZM311.655 331.408C313.834 331.69 315.817 332.108 316.063 332.338C316.337 332.593 316.194 332.754 315.695 332.754C312.375 332.754 304.9 339.291 299.858 346.601C296.191 351.92 292.809 354.952 287.858 357.364C283.6 359.438 279.781 360.411 274.049 360.881C270.157 361.201 269.087 360.808 271.223 359.845C273.202 358.954 277.499 355.176 279.48 352.588C281.901 349.423 284.289 345.154 285.955 341.012C289.242 332.839 297.855 329.62 311.655 331.408ZM585.33 331.564C592.03 332.965 595.716 336.025 598.339 342.364C601.359 349.662 606.04 355.801 610.855 358.78C612.301 359.674 613.494 360.585 613.507 360.803C613.537 361.331 606.547 360.737 602.696 359.885C598.544 358.967 592.626 356.043 589.629 353.43C588.271 352.247 585.423 348.876 583.3 345.938C581.177 343.002 578.094 339.356 576.448 337.836C573.489 335.105 569.58 332.754 567.998 332.754C566.023 332.754 568.343 331.861 571.374 331.456C576.334 330.791 581.838 330.834 585.33 331.564ZM441.85 339.26H450.491L451.993 336.669L453.496 334.078L454.849 335.357C455.593 336.061 456.082 336.756 455.936 336.903C455.789 337.049 452.559 339.069 448.757 341.391L441.846 345.613L435.723 341.905C432.356 339.866 429.113 337.883 428.518 337.499L427.436 336.801L428.733 335.466L430.029 334.131L431.618 336.695L433.209 339.26H441.85ZM317.735 375.005L318.913 375.336L317.579 375.674C315.248 376.265 308.823 383.124 304.358 389.786C299.447 397.116 295.052 401.434 289.875 404.02C286.243 405.835 282.156 407.098 279.89 407.108C278.58 407.113 278.606 407.065 280.937 405.138C284.975 401.8 288.352 397.124 291.932 389.918C293.773 386.211 295.882 382.416 296.618 381.483C298.178 379.507 301.582 377.242 304.567 376.195C308.36 374.865 315.077 374.257 317.735 375.005ZM578.358 375.984C581.922 377.07 586.071 379.892 587.69 382.33C588.339 383.308 590.161 386.738 591.739 389.952C594.989 396.573 599.229 402.442 602.77 405.224C605.112 407.064 605.139 407.113 603.817 407.108C601.605 407.099 597.51 405.856 593.907 404.1C588.843 401.632 584.276 397.153 579.311 389.786C574.938 383.297 569.186 377.06 566.535 375.933C565.058 375.306 565.037 375.264 566.064 374.946C567.835 374.398 575.189 375.018 578.358 375.984ZM318.696 402.582C316.238 406.237 314.53 411.841 313.493 419.661C312.719 425.491 311.756 428.761 309.611 432.836C307.581 436.691 303.023 441.746 300.339 443.115L298.852 443.874L299.751 442.108C302.224 437.25 303.095 432.742 303.549 422.45C303.862 415.344 304.042 414.062 304.967 412.296C307.142 408.148 311.919 404.112 317.12 402.029C318.365 401.53 319.458 401.111 319.548 401.097C319.638 401.083 319.255 401.751 318.696 402.582ZM569.368 403.498C573.856 405.782 577.694 409.653 579.043 413.255C579.766 415.187 580.019 417.397 580.227 423.612C580.509 432.068 581.354 436.517 583.593 441.344L584.744 443.824L583.24 443.061C580.714 441.778 576.198 436.834 574.306 433.28C571.762 428.5 571.304 426.973 570.188 419.553C569.024 411.814 566.984 405.303 564.927 402.763C563.522 401.028 563.511 400.98 564.598 401.306C565.216 401.492 567.363 402.478 569.368 403.498ZM324.857 437.243C323.106 439.669 321.917 443.514 320.738 450.551C319.209 459.679 317.372 463.696 312.796 467.92C309.403 471.051 308.377 471.518 309.47 469.432C311.105 466.312 312.139 461.008 312.488 453.941C312.893 445.774 313.364 444.367 316.817 441.029C318.67 439.238 324.196 435.968 325.421 435.937C325.633 435.932 325.379 436.519 324.857 437.243ZM561.375 437.348C565.776 439.502 568.069 441.587 569.664 444.886C570.963 447.571 571.08 448.262 571.306 454.517C571.551 461.308 572.22 464.909 573.955 468.779C574.449 469.881 574.661 470.783 574.426 470.783C573.257 470.783 567.833 464.971 566.295 462.07C564.318 458.341 563.881 456.817 562.893 450.197C562.059 444.612 560.487 439.532 558.92 437.361C558.351 436.572 558.018 435.927 558.18 435.927C558.342 435.927 559.78 436.566 561.375 437.348ZM334.298 453.704C333.068 456.924 333.339 465.48 334.913 473.107C337.214 484.25 336.503 492.155 332.532 499.613C331.63 501.305 330.262 503.406 329.491 504.281L328.09 505.871L328.428 504.477C329.042 501.943 328.75 494.333 327.897 490.584C327.437 488.566 326.105 484.174 324.937 480.824C322.928 475.064 322.823 474.515 323.007 470.708C323.283 465.029 325.393 460.854 330.664 455.563C332.764 453.454 334.611 451.729 334.768 451.729C334.924 451.729 334.713 452.617 334.298 453.704ZM553.569 456.06C555.819 458.397 557.495 460.704 558.722 463.154C560.468 466.64 560.541 466.971 560.541 471.456C560.541 475.705 560.386 476.527 558.832 480.543C556.268 487.17 554.999 493.009 554.944 498.436C554.918 500.992 555.055 503.71 555.249 504.477L555.603 505.871L554.135 504.245C552.23 502.135 549.234 496.001 548.234 492.161C547.002 487.437 547.188 480.596 548.751 473.107C550.348 465.455 550.606 456.946 549.34 453.697C548.606 451.815 548.609 451.737 549.401 452.156C549.859 452.398 551.735 454.155 553.569 456.06ZM348.366 467.916C347.869 470.502 348.352 475.743 349.547 480.743C350.458 484.554 350.428 491.806 349.488 494.982C349.078 496.37 348.178 498.447 347.488 499.597L346.235 501.689L345.925 496.792C345.674 492.813 345.243 490.783 343.625 485.95C341.266 478.905 341.214 475.98 343.372 471.778C344.544 469.496 348.268 464.97 348.658 465.354C348.75 465.446 348.62 466.599 348.366 467.916ZM540.341 471.819C541.027 473.152 541.611 475.268 541.764 476.964C541.992 479.486 541.777 480.601 540.044 485.887C538.448 490.757 538.005 492.876 537.762 496.809L537.461 501.689L536.203 499.597C533.182 494.576 532.573 487.836 534.377 479.384C535.363 474.76 535.688 468.996 535.111 466.359C534.819 465.027 534.892 465.062 536.993 467.264C538.195 468.524 539.702 470.573 540.341 471.819ZM366.216 482.05C365.536 484.392 365.692 487.492 366.766 492.951C368.399 501.254 367.497 508.672 364.376 512.61L363.454 513.772L363.731 511.403C364.059 508.603 362.956 502.72 361.277 498.322C358.977 492.291 360.05 487.017 364.494 482.518C365.567 481.431 366.492 480.543 366.55 480.543C366.607 480.543 366.458 481.221 366.216 482.05ZM522.175 486.774C524.028 490.433 524.032 493.416 522.192 498.789C520.523 503.658 519.578 509.108 519.938 511.788C520.187 513.647 520.158 513.714 519.477 512.843C519.076 512.331 518.198 510.763 517.525 509.357C515.87 505.902 515.542 499.132 516.77 493.753C517.672 489.799 517.935 483.367 517.273 481.472C516.512 479.296 520.659 483.782 522.175 486.774ZM361.22 553.397C361.763 560.946 365.135 571.03 368.556 575.334L369.466 576.478L369.778 574.636C370.819 568.48 373.112 561.535 374.76 559.549L375.724 558.388L375.393 560.014C374.868 562.587 375.015 578.64 375.582 580.695C375.864 581.718 377.04 585.273 378.196 588.596C379.352 591.919 380.438 595.65 380.609 596.888C380.915 599.094 380.9 599.13 379.826 598.746C378.461 598.259 372.944 598.234 371.633 598.709C370.886 598.98 369.53 598.357 365.822 596.037C363.162 594.373 360.772 593.011 360.511 593.011C359.715 593.011 357.227 594.905 353.919 598.029C351.021 600.766 350.654 600.974 349.263 600.673L347.753 600.346L348.043 597.259C348.585 591.47 352.381 585.708 357.114 583.492C357.994 583.08 358.71 582.701 358.707 582.649C358.704 582.597 358.269 581.195 357.742 579.534C356.73 576.35 355.594 564.598 356.07 562.248C356.497 560.145 356.026 560.746 355.182 563.384C354.753 564.726 354.295 566.137 354.166 566.521C353.819 567.549 352.897 565.606 351.664 561.251C350.604 557.506 350.593 556.106 351.642 558.605C352.292 560.154 353.061 560.477 353.062 559.201C353.062 557.554 355.795 552.762 357.699 551.068C360.604 548.483 360.88 548.666 361.22 553.397ZM522.225 551.068C524.129 552.762 526.863 557.554 526.863 559.201C526.864 560.498 527.636 560.144 528.31 558.54C528.651 557.729 528.999 557.272 529.084 557.524C529.284 558.116 526.932 566.162 526.404 566.689C526.182 566.912 525.618 565.882 525.138 564.38L524.273 561.669L523.736 568.858C523.273 575.059 522.583 579.109 521.52 581.857C521.333 582.341 522.101 583.078 524.029 584.264C528.674 587.124 531.315 591.565 531.893 597.492L532.171 600.346L530.685 600.668C529.314 600.965 528.913 600.725 525.522 597.581C523.5 595.707 521.292 593.883 520.616 593.529C519.247 592.812 519.707 592.617 512.712 596.896C509.4 598.922 509.052 599.035 507.623 598.543C506.073 598.009 501.415 598.167 499.901 598.805C499.163 599.115 499.107 598.917 499.358 596.894C499.511 595.653 500.58 591.919 501.733 588.596C502.887 585.273 504.062 581.718 504.346 580.695C504.931 578.583 505.043 561.266 504.482 559.523C504.163 558.532 504.209 558.469 504.863 559.004C506.113 560.028 508.36 566.014 509.487 571.32L510.555 576.352L511.441 575.27C514.579 571.439 518.059 561.206 518.637 554.115C519.097 548.465 519.201 548.377 522.225 551.068ZM417.118 600.026C417.118 601.32 415.367 609.801 414.453 612.925C414.054 614.293 413.563 615.234 413.362 615.017C413.16 614.799 412.516 613.158 411.929 611.369C410.67 607.526 408.086 602.273 407.031 601.409C406.621 601.073 406.285 600.631 406.285 600.426C406.285 599.905 410.661 599.174 414.175 599.108C416.866 599.057 417.118 599.136 417.118 600.026ZM470.657 599.565C472.298 599.847 473.639 600.175 473.639 600.293C473.639 600.412 473.133 601.175 472.515 601.989C470.921 604.085 469.234 607.586 467.994 611.369C466.286 616.584 466.331 616.626 464.257 607.883C463.742 605.71 463.177 602.835 463.002 601.493L462.685 599.053H465.18C466.552 599.053 469.017 599.283 470.657 599.565ZM380.235 610.555C380.094 611.003 379.448 612.832 378.8 614.622C377.631 617.845 376.648 623.345 376.572 627.087L376.532 629.029L375.629 627.092C373.735 623.031 371.126 611.377 371.992 610.848C372.225 610.707 373.836 610.427 375.573 610.227C380.565 609.653 380.519 609.65 380.235 610.555ZM507.081 610.665C508.045 610.918 508.233 611.221 508.12 612.333C507.657 616.85 505.233 625.822 503.833 628.195C503.435 628.872 503.339 628.663 503.327 627.087C503.301 623.492 502.312 617.898 501.125 614.622C500.476 612.832 499.832 611.008 499.694 610.568C499.466 609.845 499.756 609.796 502.673 610.062C504.45 610.224 506.434 610.495 507.081 610.665ZM346.632 613.154C345.376 614.519 343.3 617.385 342.021 619.523C339.732 623.346 339.688 623.388 339.319 622.037C338.769 620.016 337.946 611.579 338.253 611.091C338.397 610.86 340.856 610.671 343.716 610.671H348.917L346.632 613.154ZM541.536 614.718C541.446 616.815 541.128 619.619 540.829 620.947L540.285 623.362L537.724 619.226C536.316 616.951 534.214 614.089 533.053 612.865L530.943 610.639L536.322 610.772L541.7 610.904L541.536 614.718Z" fill="#6C48D1"/>
</svg>
